<?xml version="1.0" standalone="no"?>
<!DOCTYPE svg PUBLIC "-//W3C//DTD SVG 20010904//EN"
 "http://www.w3.org/TR/2001/REC-SVG-20010904/DTD/svg10.dtd">
<svg version="1.0" xmlns="http://www.w3.org/2000/svg"
 width="200.000000pt" height="200.000000pt" viewBox="0 0 200.000000 200.000000"
 preserveAspectRatio="xMidYMid meet">
<metadata>
Created by potrace 1.14, written by Peter Selinger 2001-2017
</metadata>
<g transform="translate(0.000000,200.000000) scale(0.100000,-0.100000)"
fill="#000000" stroke="none">
<path d="M1257 1914 c-1 -1 -83 -4 -182 -7 -99 -3 -190 -8 -202 -11 -13 -3
-32 -8 -43 -10 -44 -10 -146 -50 -162 -64 -10 -8 -18 -12 -18 -8 0 4 -26 -10
-57 -30 -54 -34 -79 -57 -128 -115 -24 -29 -79 -129 -70 -129 3 0 -2 -11 -11
-25 -9 -14 -12 -25 -8 -25 5 0 4 -4 -2 -8 -28 -18 -40 -258 -19 -357 4 -16 8
-34 9 -40 15 -74 176 -305 212 -305 8 0 14 -4 14 -8 0 -6 37 -24 68 -32 4 -1
16 -9 27 -16 11 -8 27 -14 35 -14 34 0 41 -22 18 -59 -12 -20 -30 -44 -39 -54
-9 -9 -22 -30 -30 -45 -8 -15 -22 -34 -31 -43 -10 -9 -15 -19 -11 -23 3 -3 1
-6 -4 -6 -6 0 -24 -20 -40 -45 -15 -25 -31 -45 -35 -45 -5 0 -8 -7 -8 -15 0
-8 -5 -15 -11 -15 -5 0 -7 -4 -4 -10 3 -5 2 -10 -3 -10 -5 0 -15 -13 -22 -29
-6 -16 -19 -37 -28 -48 -9 -10 -32 -41 -51 -68 -19 -28 -41 -56 -49 -63 -36
-28 -22 -38 54 -37 41 0 74 3 74 6 0 3 8 14 18 25 9 10 35 46 57 79 22 33 50
69 61 80 12 11 22 23 23 28 2 18 32 67 41 67 5 0 12 11 16 25 3 14 10 25 14
25 5 0 20 20 34 44 14 25 32 51 39 58 6 7 23 33 36 58 14 24 44 72 68 106 42
60 51 83 36 85 -5 1 -19 2 -33 4 -71 9 -101 15 -134 29 -45 19 -156 94 -174
118 -7 9 -18 23 -25 30 -19 20 -55 91 -61 118 -2 14 -9 44 -14 68 -11 46 -13
230 -3 247 3 6 6 15 7 20 13 69 21 91 46 128 11 15 17 27 13 27 -3 0 -1 6 5
13 5 6 20 25 31 40 12 15 24 26 27 23 3 -3 14 5 26 18 19 21 148 97 161 95 6
-1 59 8 95 17 49 12 570 12 569 0 -1 -11 -9 -24 -93 -152 -74 -113 -103 -159
-120 -189 -21 -39 -30 -53 -93 -152 -29 -44 -53 -84 -53 -88 0 -3 26 -5 57 -3
53 3 59 6 80 38 13 19 29 42 36 50 7 8 31 47 54 85 22 39 55 87 72 109 17 21
31 45 31 52 0 8 4 14 8 14 5 0 20 21 33 48 13 26 33 61 45 77 12 17 43 70 68
118 52 97 54 126 8 128 -55 2 -354 4 -355 3z"/>
</g>
</svg>
